<?xml version="1.0" standalone="no"?>
<!DOCTYPE svg PUBLIC "-//W3C//DTD SVG 20010904//EN"
 "http://www.w3.org/TR/2001/REC-SVG-20010904/DTD/svg10.dtd">
<svg version="1.0" xmlns="http://www.w3.org/2000/svg"
 width="994.000000pt" height="136.000000pt" viewBox="0 0 994.000000 136.000000"
 preserveAspectRatio="xMidYMid meet">

<g transform="translate(0.000000,136.000000) scale(0.100000,-0.100000)"
fill="#000000" stroke="none">
<path d="M0 680 l0 -680 4970 0 4970 0 0 680 0 680 -4970 0 -4970 0 0 -680z
m447 504 c33 -36 34 -36 95 -29 34 4 109 18 167 31 57 13 107 21 110 18 14
-13 5 -140 -12 -172 -39 -72 -157 -115 -264 -96 -32 6 -65 14 -74 18 -14 6
-19 -7 -32 -81 -18 -96 -16 -103 38 -103 17 0 54 7 83 14 l52 14 0 -54 c0 -44
-5 -59 -24 -79 -31 -31 -86 -45 -145 -38 l-48 5 -6 -38 c-4 -22 -7 -54 -7 -71
l0 -33 111 0 c79 0 134 6 191 21 87 22 98 19 98 -27 0 -40 -30 -119 -56 -147
-48 -52 -85 -57 -235 -31 -90 16 -100 16 -138 1 -52 -21 -133 -22 -171 -2 -77
40 -84 156 -27 485 l34 205 -33 67 -34 68 70 35 c76 39 124 52 184 54 32 1 44
-5 73 -35z m879 21 c32 -13 41 -13 85 1 56 19 112 14 139 -11 33 -30 40 -99
38 -365 -2 -188 1 -271 11 -315 16 -70 40 -122 70 -149 12 -11 21 -22 21 -26
0 -15 -79 -43 -136 -47 -109 -9 -166 39 -202 174 l-19 68 -126 3 -125 3 -12
-58 c-7 -31 -10 -76 -7 -100 4 -42 4 -43 -42 -65 -25 -12 -71 -24 -102 -26
-48 -4 -59 -1 -84 21 -25 21 -29 33 -33 90 -6 93 20 169 134 393 l96 189 -11
68 c-6 38 -9 73 -5 78 9 15 120 68 162 78 58 14 109 12 148 -4z m1092 -10 c30
-9 70 -31 90 -50 33 -30 36 -37 36 -86 0 -65 -22 -110 -67 -138 -77 -47 -188
-32 -247 35 -16 19 -30 39 -30 44 0 15 -37 12 -70 -5 -30 -16 -70 -60 -70 -79
0 -6 42 -24 93 -40 198 -60 321 -143 346 -232 59 -211 -104 -353 -405 -354
-251 0 -363 76 -340 233 4 23 15 57 26 75 l20 32 36 -40 c67 -74 192 -115 280
-91 72 19 127 81 73 81 -38 0 -143 31 -207 62 -119 56 -184 148 -184 258 0
145 101 248 296 301 84 23 237 20 324 -6z m355 14 c123 -34 183 -177 195 -466
4 -90 11 -154 17 -154 14 -2 61 124 96 259 35 134 48 257 30 291 -11 20 -8 23
45 48 106 48 196 37 229 -28 46 -88 -31 -379 -180 -684 -111 -226 -207 -326
-345 -361 -167 -42 -310 17 -310 129 0 38 24 113 45 141 15 19 15 19 35 -2 53
-57 167 -75 243 -38 31 15 94 84 84 92 -1 1 -31 -3 -66 -8 -52 -8 -71 -7 -106
7 -62 23 -71 49 -84 250 -16 253 -48 370 -119 442 -37 36 -32 43 45 73 55 22
92 24 146 9z m1706 -15 c34 -9 68 -29 88 -49 29 -29 33 -39 33 -88 0 -40 -6
-63 -22 -87 -40 -58 -72 -75 -141 -75 -74 0 -137 31 -168 82 -24 39 -38 40
-89 12 -32 -18 -79 -75 -68 -83 1 -2 45 -15 96 -30 173 -49 293 -122 339 -208
12 -22 18 -55 18 -103 0 -90 -32 -150 -108 -200 -83 -55 -194 -79 -342 -72
-164 6 -241 34 -287 105 -26 39 -24 133 3 189 19 39 39 57 39 34 0 -18 63 -72
113 -97 91 -46 204 -42 261 11 32 30 33 45 3 45 -41 0 -171 41 -230 72 -145
78 -205 235 -138 366 44 86 166 163 310 193 55 12 229 2 290 -17z m879 -11
c70 -36 95 -77 89 -146 -5 -60 -30 -95 -88 -125 -35 -19 -55 -22 -95 -19 -64
6 -124 37 -157 78 l-24 31 -42 -37 c-106 -96 -149 -296 -90 -421 58 -122 204
-59 233 100 l7 39 70 -7 c127 -12 165 -42 156 -123 -10 -91 -100 -189 -217
-235 -81 -32 -251 -32 -332 0 -117 47 -188 150 -210 301 -45 319 234 613 566
597 62 -3 91 -10 134 -33z m702 19 c40 -20 60 -53 60 -100 l0 -33 30 16 c48
25 111 19 157 -14 58 -42 86 -106 91 -208 13 -248 -107 -456 -313 -542 -53
-23 -74 -26 -175 -25 -95 0 -125 4 -172 22 -107 43 -182 120 -224 232 -27 70
-25 245 4 336 29 96 91 186 164 239 110 82 295 119 378 77z m956 3 c37 -15 64
-62 64 -110 0 -25 1 -25 30 -10 48 25 111 19 157 -14 59 -43 86 -106 91 -211
15 -337 -212 -586 -518 -567 -185 11 -311 100 -367 261 -27 77 -25 239 5 333
28 89 92 186 158 236 105 80 290 120 380 82z m1511 -21 c33 -36 34 -36 95 -29
34 4 109 18 167 31 57 13 107 21 110 18 3 -3 6 -36 6 -73 0 -56 -4 -74 -27
-108 -56 -85 -211 -118 -329 -69 -14 6 -19 -7 -33 -80 -18 -97 -15 -104 39
-104 17 0 54 7 83 14 l52 14 0 -54 c0 -44 -5 -59 -24 -79 -31 -31 -86 -45
-145 -38 -48 5 -48 5 -55 -27 -3 -18 -6 -50 -6 -71 l0 -39 113 0 c101 0 228
21 265 44 18 11 24 -63 8 -117 -20 -68 -68 -117 -125 -124 -23 -3 -88 2 -145
12 -97 17 -107 17 -145 1 -52 -20 -133 -21 -171 -1 -77 40 -84 163 -27 490
l34 200 -33 67 -34 68 70 35 c76 39 124 52 184 54 32 1 44 -5 73 -35z m807 14
c25 -13 35 -13 95 4 136 39 245 3 308 -101 74 -123 41 -294 -74 -389 -34 -27
-42 -39 -37 -56 17 -61 98 -209 139 -254 l46 -51 -23 -15 c-75 -49 -178 -59
-248 -24 -58 30 -96 87 -139 211 -33 95 -34 97 -65 97 -17 0 -45 4 -63 9 -27
8 -32 6 -37 -12 -11 -41 -5 -192 9 -232 17 -47 11 -57 -50 -81 -31 -11 -63
-15 -105 -12 -142 10 -157 99 -90 506 l34 203 -32 64 -32 64 43 25 c40 22 107
49 152 60 36 9 141 -1 169 -16z m-1555 -19 c134 -24 193 -24 293 2 94 24 98
21 97 -56 -1 -125 -69 -193 -198 -203 l-68 -4 -32 -177 c-34 -194 -39 -287
-16 -351 8 -23 12 -47 9 -52 -14 -22 -91 -48 -144 -48 -74 0 -112 24 -135 84
-23 60 -16 175 24 411 16 94 27 172 25 175 -3 2 -54 -4 -115 -14 -60 -10 -112
-16 -115 -13 -11 11 -4 136 9 168 19 44 55 77 104 95 43 16 102 12 262 -17z"/>
<path d="M1220 846 c-44 -90 -80 -166 -80 -170 0 -3 43 -6 95 -6 l95 0 0 93
c0 52 3 128 6 170 7 74 6 77 -14 77 -18 0 -36 -29 -102 -164z"/>
<path d="M5932 1009 c-58 -29 -127 -108 -148 -172 -27 -78 -24 -198 5 -265 32
-71 70 -97 143 -97 48 0 62 5 94 31 49 40 92 121 75 143 -6 9 -24 41 -39 71
-23 47 -27 67 -27 140 1 68 5 94 23 128 l22 42 -52 0 c-34 0 -69 -8 -96 -21z"/>
<path d="M6895 1011 c-55 -25 -130 -110 -152 -174 -12 -35 -18 -80 -18 -137 0
-75 4 -91 30 -140 37 -68 79 -93 147 -87 64 5 113 45 145 114 22 48 23 56 10
71 -8 9 -25 37 -38 62 -34 64 -35 205 -2 268 l23 42 -53 0 c-29 0 -70 -9 -92
-19z"/>
<path d="M9324 1052 c-9 -6 -54 -231 -54 -270 0 -28 116 -4 168 34 110 84 68
244 -65 244 -21 0 -43 -4 -49 -8z"/>
</g>
</svg>
