<?xml version="1.0" standalone="no"?>
<!DOCTYPE svg PUBLIC "-//W3C//DTD SVG 20010904//EN"
 "http://www.w3.org/TR/2001/REC-SVG-20010904/DTD/svg10.dtd">
<svg version="1.0" xmlns="http://www.w3.org/2000/svg"
 width="1325.000000pt" height="181.000000pt" viewBox="0 0 1325.000000 181.000000"
 preserveAspectRatio="xMidYMid meet">

<g transform="translate(0.000000,181.000000) scale(0.100000,-0.100000)"
fill="#ffffff" stroke="none">
<path d="M0 905 l0 -905 6625 0 6625 0 0 905 0 905 -6625 0 -6625 0 0 -905z
m596 674 l43 -42 78 6 c43 4 143 20 223 37 86 17 149 25 154 20 12 -12 9 -134
-5 -192 -31 -130 -235 -206 -421 -156 -48 13 -58 14 -62 2 -13 -33 -36 -193
-30 -208 8 -21 76 -21 159 -1 88 21 85 22 85 -42 0 -122 -61 -173 -207 -173
-45 0 -84 -4 -87 -8 -3 -5 -8 -46 -12 -90 l-7 -82 99 0 c114 0 238 14 326 36
33 9 71 13 85 9 25 -6 25 -8 21 -69 -7 -80 -49 -168 -101 -210 -37 -30 -42
-31 -130 -30 -51 1 -134 9 -185 18 -90 16 -94 16 -158 -4 -83 -25 -166 -26
-220 -1 -56 26 -86 87 -92 192 -5 94 7 205 55 501 l37 228 -42 85 c-23 47 -42
89 -42 93 0 16 215 112 270 121 86 15 118 7 166 -40z m3134 20 c145 -64 204
-222 231 -614 6 -93 15 -176 19 -184 17 -32 110 244 150 448 17 88 21 136 18
209 l-5 94 65 31 c88 41 190 49 249 19 63 -33 77 -72 70 -201 -9 -164 -72
-374 -200 -661 -106 -239 -193 -377 -298 -475 -109 -101 -223 -140 -383 -133
-77 3 -99 8 -144 33 -79 43 -97 74 -97 165 1 56 7 88 24 127 34 77 41 80 95
39 25 -19 62 -40 83 -47 42 -14 144 -18 184 -7 31 9 99 62 129 101 l22 28 -98
-6 c-91 -6 -103 -5 -144 17 -75 39 -83 68 -110 403 -21 261 -63 407 -143 503
-21 24 -37 50 -37 58 0 9 24 26 54 40 104 47 179 51 266 13z m4336 10 c54 -17
87 -61 92 -124 2 -30 6 -55 7 -55 1 0 24 10 50 21 111 49 246 -21 290 -150 57
-165 27 -424 -66 -588 -73 -127 -170 -216 -307 -281 l-77 -37 -181 0 -180 0
-80 39 c-151 75 -262 223 -285 381 -13 84 -4 250 16 331 23 88 87 212 144 276
137 152 406 240 577 187z m1294 -7 c40 -20 80 -82 80 -128 0 -17 3 -33 6 -36
3 -4 26 3 51 14 54 24 111 20 172 -12 96 -49 143 -158 142 -335 0 -224 -68
-404 -205 -539 -165 -163 -394 -221 -631 -160 -191 50 -335 212 -366 414 -12
80 -7 219 11 310 7 30 31 96 55 145 76 157 187 257 343 309 142 48 268 54 342
18z m2006 -23 l43 -42 78 6 c43 3 145 20 227 37 82 17 150 29 152 27 12 -12
15 -132 4 -177 -17 -72 -82 -139 -165 -170 -73 -27 -207 -31 -273 -7 -39 14
-43 13 -52 -2 -13 -26 -32 -143 -28 -182 3 -32 5 -34 44 -37 23 -2 72 4 108
12 37 9 72 16 78 16 6 0 9 -27 6 -76 -3 -74 -5 -78 -41 -109 -43 -38 -72 -45
-173 -45 -84 0 -79 5 -90 -109 l-7 -74 154 6 c150 7 275 25 332 48 40 17 49 0
44 -81 -7 -106 -59 -191 -139 -225 -48 -19 -76 -19 -233 5 -129 19 -131 19
-204 0 -249 -66 -333 32 -301 350 6 63 28 218 50 344 l38 229 -44 89 c-24 48
-44 89 -44 91 0 12 225 108 271 116 85 15 117 7 165 -40z m-9597 27 c35 -13
48 -13 96 0 72 18 148 18 184 -1 17 -8 36 -31 47 -57 15 -38 18 -90 25 -443 7
-410 9 -436 52 -536 8 -20 31 -55 51 -77 33 -36 35 -41 21 -56 -38 -37 -195
-65 -265 -46 -92 24 -131 74 -180 230 l-27 85 -165 3 -164 2 -12 -63 c-7 -36
-12 -94 -12 -131 0 -64 -1 -67 -32 -86 -49 -30 -105 -44 -181 -44 -66 -1 -70
0 -101 35 -28 30 -34 46 -40 102 -12 124 19 215 191 560 l113 227 -11 89 c-7
48 -9 95 -6 104 7 19 110 73 187 98 67 22 173 24 229 5z m1446 -10 c64 -20
139 -67 162 -102 13 -20 18 -46 17 -90 -1 -82 -34 -150 -90 -181 -135 -76
-294 -32 -373 105 -16 27 -80 3 -134 -49 -41 -40 -48 -51 -38 -63 7 -8 63 -31
124 -51 279 -92 422 -194 458 -329 15 -55 6 -173 -16 -216 -76 -149 -236 -226
-490 -237 -351 -14 -526 90 -502 298 5 39 44 140 62 157 1 2 28 -22 59 -53 35
-35 81 -68 123 -88 62 -29 77 -32 164 -32 89 0 99 2 145 30 66 41 67 67 2 76
-138 20 -306 96 -383 173 -62 62 -93 123 -106 210 -34 214 137 393 432 456 65
14 324 4 384 -14z m2660 14 c138 -20 231 -73 255 -146 13 -39 7 -122 -12 -158
-16 -31 -69 -86 -100 -102 -33 -17 -152 -19 -199 -2 -52 18 -107 57 -129 93
-25 40 -35 44 -78 33 -60 -16 -156 -128 -109 -128 28 0 261 -81 329 -115 97
-47 190 -124 225 -182 26 -44 28 -56 28 -148 -1 -120 -22 -173 -94 -236 -127
-113 -321 -156 -579 -130 -179 18 -260 55 -309 138 -23 40 -25 51 -21 131 6
117 54 215 81 166 20 -37 93 -95 157 -126 119 -57 265 -49 337 18 40 38 36 54
-12 54 -46 0 -216 55 -287 92 -76 40 -152 119 -191 198 -28 57 -32 74 -31 145
0 61 6 92 23 133 45 101 196 213 346 256 33 10 65 19 70 21 23 8 235 4 300 -5z
m1239 -18 c115 -52 163 -121 152 -216 -9 -65 -33 -107 -87 -146 -83 -60 -165
-63 -276 -9 -35 17 -77 47 -96 69 l-34 40 -55 -58 c-88 -92 -135 -202 -145
-337 -10 -148 40 -269 121 -289 47 -12 112 17 151 68 28 36 65 124 65 154 1
41 12 45 111 32 125 -16 175 -38 195 -87 48 -113 -63 -286 -240 -373 -102 -51
-218 -67 -359 -50 -218 25 -359 166 -403 400 -69 366 181 730 561 816 94 21
277 13 339 -14z m5291 17 c73 -20 110 -21 172 -5 33 9 94 16 134 16 177 0 308
-130 326 -324 11 -121 -43 -250 -144 -347 -29 -28 -53 -59 -53 -70 0 -51 125
-279 197 -359 53 -59 51 -64 -40 -106 -52 -23 -76 -28 -147 -28 -99 0 -144 18
-203 83 -43 48 -61 83 -112 216 -22 55 -45 107 -52 116 -8 9 -36 19 -66 22
-29 3 -60 8 -69 12 -13 5 -20 0 -28 -20 -13 -35 -12 -163 1 -245 21 -124 20
-132 -29 -157 -93 -46 -238 -40 -294 13 -40 39 -51 85 -51 204 1 116 8 175 58
488 l35 213 -40 79 c-22 44 -40 84 -40 90 0 12 105 66 190 96 72 26 186 31
255 13z m-2047 -35 c170 -28 255 -30 360 -7 42 9 97 17 121 18 41 0 45 -2 53
-30 12 -43 0 -132 -27 -191 -38 -86 -118 -131 -252 -141 -68 -5 -72 -7 -78
-32 -30 -143 -67 -398 -72 -491 -4 -91 -2 -128 11 -172 24 -82 22 -86 -38
-114 -120 -55 -252 -40 -302 36 -57 86 -56 192 7 599 18 116 30 213 26 217 -4
4 -49 1 -100 -6 -50 -8 -117 -15 -147 -15 l-55 0 0 80 c1 112 11 150 52 196
86 95 147 102 441 53z"/>
<path d="M7989 1360 c-25 -4 -63 -17 -85 -28 -58 -30 -141 -122 -177 -199 -30
-65 -31 -74 -31 -189 0 -118 1 -123 34 -190 41 -80 70 -104 138 -115 93 -14
163 17 218 100 55 81 57 99 18 171 -84 150 -85 298 -6 453 5 9 -47 7 -109 -3z"/>
<path d="M9269 1360 c-69 -12 -120 -42 -179 -107 -81 -88 -109 -156 -116 -283
-7 -121 1 -160 48 -240 82 -137 248 -131 344 12 56 82 57 98 18 163 -76 125
-85 304 -23 428 l19 37 -32 -1 c-18 -1 -54 -5 -79 -9z"/>
<path d="M1721 1292 c-37 -58 -194 -382 -188 -388 2 -3 57 -7 121 -11 l116 -6
0 90 c0 49 3 151 7 226 5 120 4 137 -9 137 -9 0 -30 -22 -47 -48z"/>
<path d="M12458 1403 c-18 -3 -28 -12 -33 -30 -16 -67 -54 -262 -56 -298 l-4
-40 57 1 c73 2 160 43 202 97 25 31 31 49 34 100 3 52 0 67 -20 96 -38 57
-108 86 -180 74z"/>
</g>
</svg>
